<svg width="16" height="16" viewBox="0 0 16 16" fill="none" xmlns="http://www.w3.org/2000/svg">
<path fill-rule="evenodd" clip-rule="evenodd" d="M1 12.8754V12.201V7.46917V2.80661C1 1.80885 1.80359 1 2.79487 1H4.16109H9.79488H11.1611C12.1524 1 12.956 1.80885 12.956 2.80661V12.201C12.956 12.8403 12.6261 13.402 12.1282 13.7232V4.5182C12.1282 4.12168 11.8068 3.80025 11.4103 3.80025C11.0138 3.80025 10.6923 4.12168 10.6923 4.5182V14.7689C10.5881 14.7678 10.4815 14.7481 10.3764 14.7069C10.1226 14.6076 9.83714 14.6301 9.60205 14.7682L9.4297 14.8694C9.09286 15.0671 8.68497 15.1031 8.31873 14.9673L7.95792 14.8335C7.46529 14.6508 6.92224 14.6583 6.43485 14.8545L6.2765 14.9183C5.71612 15.1439 5.08697 15.1252 4.54102 14.8666L4.44483 14.821C4.07337 14.645 3.65397 14.5975 3.25257 14.6859C2.09572 14.9406 1 14.0599 1 12.8754Z" fill="#B8B8B8"/>
<path d="M11.0544 4.52206C11.0527 4.32346 11.2132 4.16156 11.4118 4.16156V4.16156C11.6092 4.16156 11.7692 4.32159 11.7692 4.519V14.0703C11.7692 14.2547 11.665 14.4232 11.5 14.5056V14.5056L11.2462 14.6322C11.236 14.6373 11.2249 14.6399 11.2135 14.6399V14.6399C11.1734 14.6399 11.1407 14.6075 11.1404 14.5674L11.0544 4.52206Z" fill="#B8B8B8"/>
<path fill-rule="evenodd" clip-rule="evenodd" d="M15 5.51977L13.9231 6.6037L14.9968 7.68446H11.7692V5.51653H15V5.51977Z" fill="#B8B8B8"/>
<ellipse cx="7.55127" cy="6.3295" rx="0.987181" ry="1.71628" fill="#3B3B3E"/>
<mask id="path-5-inside-1_983_383" fill="white">
<path fill-rule="evenodd" clip-rule="evenodd" d="M8.27875 5.16934C7.81455 5.24864 7.46156 5.66189 7.46156 6.41982C7.46156 7.15122 7.79026 7.49447 8.23042 7.57508C8.05346 7.86681 7.81438 8.04578 7.55127 8.04578C7.00606 8.04578 6.56409 7.27737 6.56409 6.3295C6.56409 5.38162 7.00606 4.61322 7.55127 4.61322C7.83918 4.61322 8.0983 4.8275 8.27875 5.16934Z"/>
</mask>
<path fill-rule="evenodd" clip-rule="evenodd" d="M8.27875 5.16934C7.81455 5.24864 7.46156 5.66189 7.46156 6.41982C7.46156 7.15122 7.79026 7.49447 8.23042 7.57508C8.05346 7.86681 7.81438 8.04578 7.55127 8.04578C7.00606 8.04578 6.56409 7.27737 6.56409 6.3295C6.56409 5.38162 7.00606 4.61322 7.55127 4.61322C7.83918 4.61322 8.0983 4.8275 8.27875 5.16934Z" fill="white"/>
<path d="M8.27875 5.16934L8.32927 5.46505L8.7373 5.39535L8.54406 5.02929L8.27875 5.16934ZM8.23042 7.57508L8.48692 7.73067L8.71271 7.35842L8.28446 7.27999L8.23042 7.57508ZM7.76156 6.41982C7.76156 6.08581 7.83932 5.85791 7.94146 5.71269C8.04101 5.57115 8.17462 5.49148 8.32927 5.46505L8.22823 4.87362C7.91868 4.92651 7.6437 5.09311 7.4507 5.3675C7.26029 5.63822 7.16156 5.99591 7.16156 6.41982H7.76156ZM8.28446 7.27999C8.12892 7.2515 8.00871 7.18131 7.92295 7.06423C7.83411 6.94293 7.76156 6.74261 7.76156 6.41982H7.16156C7.16156 6.82843 7.25335 7.16543 7.43891 7.41876C7.62754 7.67631 7.89176 7.81804 8.17637 7.87017L8.28446 7.27999ZM7.97391 7.41949C7.82463 7.66561 7.66665 7.74578 7.55127 7.74578V8.34578C7.96212 8.34578 8.28229 8.06802 8.48692 7.73067L7.97391 7.41949ZM7.55127 7.74578C7.43179 7.74578 7.266 7.65903 7.11328 7.39351C6.96522 7.13612 6.86409 6.76058 6.86409 6.3295H6.26409C6.26409 6.8463 6.38394 7.3289 6.59317 7.69267C6.79774 8.04832 7.12554 8.34578 7.55127 8.34578V7.74578ZM6.86409 6.3295C6.86409 5.89842 6.96522 5.52288 7.11328 5.26548C7.266 4.99997 7.43179 4.91322 7.55127 4.91322V4.31322C7.12554 4.31322 6.79774 4.61068 6.59317 4.96633C6.38394 5.3301 6.26409 5.8127 6.26409 6.3295H6.86409ZM7.55127 4.91322C7.67743 4.91322 7.85612 5.01136 8.01345 5.30939L8.54406 5.02929C8.34048 4.64365 8.00093 4.31322 7.55127 4.31322V4.91322Z" fill="#3B3B3E" mask="url(#path-5-inside-1_983_383)"/>
<ellipse cx="4.5" cy="6.3295" rx="0.987181" ry="1.71628" fill="#3B3B3E"/>
<mask id="path-8-inside-2_983_383" fill="white">
<path fill-rule="evenodd" clip-rule="evenodd" d="M5.22748 5.16934C4.76328 5.24864 4.41028 5.66189 4.41028 6.41982C4.41028 7.15122 4.73899 7.49447 5.17914 7.57508C5.00219 7.86681 4.76311 8.04578 4.5 8.04578C3.95479 8.04578 3.51282 7.27737 3.51282 6.3295C3.51282 5.38162 3.95479 4.61322 4.5 4.61322C4.78791 4.61322 5.04703 4.8275 5.22748 5.16934Z"/>
</mask>
<path fill-rule="evenodd" clip-rule="evenodd" d="M5.22748 5.16934C4.76328 5.24864 4.41028 5.66189 4.41028 6.41982C4.41028 7.15122 4.73899 7.49447 5.17914 7.57508C5.00219 7.86681 4.76311 8.04578 4.5 8.04578C3.95479 8.04578 3.51282 7.27737 3.51282 6.3295C3.51282 5.38162 3.95479 4.61322 4.5 4.61322C4.78791 4.61322 5.04703 4.8275 5.22748 5.16934Z" fill="white"/>
<path d="M5.22748 5.16934L5.278 5.46505L5.68603 5.39535L5.49279 5.02929L5.22748 5.16934ZM5.17914 7.57508L5.43565 7.73067L5.66144 7.35842L5.23319 7.27999L5.17914 7.57508ZM4.71028 6.41982C4.71028 6.08581 4.78804 5.8579 4.89018 5.71268C4.98973 5.57115 5.12335 5.49147 5.278 5.46505L5.17697 4.87362C4.86741 4.9265 4.59242 5.0931 4.39942 5.3675C4.20901 5.63821 4.11028 5.9959 4.11028 6.41982H4.71028ZM5.23319 7.27999C5.07765 7.2515 4.95743 7.18131 4.87168 7.06423C4.78284 6.94293 4.71028 6.74261 4.71028 6.41982H4.11028C4.11028 6.82843 4.20208 7.16544 4.38763 7.41877C4.57627 7.67631 4.84049 7.81805 5.1251 7.87017L5.23319 7.27999ZM4.92264 7.4195C4.77336 7.66561 4.61538 7.74578 4.5 7.74578V8.34578C4.91085 8.34578 5.23102 8.06802 5.43565 7.73067L4.92264 7.4195ZM4.5 7.74578C4.38052 7.74578 4.21473 7.65903 4.06201 7.39351C3.91395 7.13612 3.81282 6.76058 3.81282 6.3295H3.21282C3.21282 6.8463 3.33267 7.3289 3.5419 7.69267C3.74647 8.04832 4.07427 8.34578 4.5 8.34578V7.74578ZM3.81282 6.3295C3.81282 5.89842 3.91395 5.52288 4.06201 5.26548C4.21473 4.99997 4.38052 4.91322 4.5 4.91322V4.31322C4.07427 4.31322 3.74647 4.61068 3.5419 4.96633C3.33267 5.3301 3.21282 5.8127 3.21282 6.3295H3.81282ZM4.5 4.91322C4.62616 4.91322 4.80485 5.01136 4.96218 5.30939L5.49279 5.02929C5.28921 4.64365 4.94966 4.31322 4.5 4.31322V4.91322Z" fill="#3B3B3E" mask="url(#path-8-inside-2_983_383)"/>
</svg>
