<svg width="16" height="16" viewBox="0 0 16 16" fill="none" xmlns="http://www.w3.org/2000/svg">
  <style>
    path { fill: #3B3B3E; }
    @media (prefers-color-scheme: dark) {
      path { fill: #ffffff; }
    }
  </style>
  <path fill-rule="evenodd" clip-rule="evenodd" d="M1 12.8754V12.201V7.46917V2.80661C1 1.80885 1.80359 1 2.79487 1H4.16109H9.79488H11.1611C12.1524 1 12.956 1.80885 12.956 2.80661V12.201C12.956 12.8403 12.6261 13.402 12.1282 13.7232V4.5182C12.1282 4.12168 11.8068 3.80025 11.4103 3.80025C11.0138 3.80025 10.6923 4.12168 10.6923 4.5182V14.7689C10.5881 14.7678 10.4815 14.7481 10.3764 14.7069C10.1226 14.6076 9.83714 14.6301 9.60206 14.7682L9.4297 14.8694C9.09286 15.0671 8.68497 15.1031 8.31873 14.9673L7.95792 14.8335C7.46529 14.6508 6.92224 14.6583 6.43485 14.8545L6.2765 14.9183C5.71612 15.1439 5.08697 15.1252 4.54102 14.8666L4.44483 14.821C4.07337 14.645 3.65397 14.5975 3.25257 14.6859C2.09572 14.9406 1 14.0599 1 12.8754Z" fill="white"/>
  <path d="M11.0544 4.52206C11.0527 4.32346 11.2132 4.16156 11.4118 4.16156V4.16156C11.6092 4.16156 11.7692 4.32159 11.7692 4.519V14.0703C11.7692 14.2547 11.665 14.4232 11.5 14.5056V14.5056L11.2462 14.6322C11.236 14.6373 11.2249 14.6399 11.2135 14.6399V14.6399C11.1734 14.6399 11.1407 14.6075 11.1404 14.5674L11.0544 4.52206Z" fill="white"/>
  <path fill-rule="evenodd" clip-rule="evenodd" d="M15 5.51977L13.9231 6.6037L14.9968 7.68446H11.7692V5.51653H15V5.51977Z" fill="white"/>
  <ellipse cx="7.55127" cy="6.3295" rx="0.987181" ry="1.71628" fill="#3B3B3E"/>
  <mask id="path-5-inside-1_983_298" fill="white">
    <path fill-rule="evenodd" clip-rule="evenodd" d="M8.27875 5.16934C7.81455 5.24864 7.46156 5.66189 7.46156 6.41982C7.46156 7.15122 7.79026 7.49447 8.23042 7.57508C8.05346 7.86681 7.81438 8.04578 7.55127 8.04578C7.00606 8.04578 6.56409 7.27737 6.56409 6.3295C6.56409 5.38162 7.00606 4.61322 7.55127 4.61322C7.83918 4.61322 8.0983 4.8275 8.27875 5.16934Z"/>
  </mask>
  <path fill-rule="evenodd" clip-rule="evenodd" d="M8.27875 5.16934C7.81455 5.24864 7.46156 5.66189 7.46156 6.41982C7.46156 7.15122 7.79026 7.49447 8.23042 7.57508C8.05346 7.86681 7.81438 8.04578 7.55127 8.04578C7.00606 8.04578 6.56409 7.27737 6.56409 6.3295C6.56409 5.38162 7.00606 4.61322 7.55127 4.61322C7.83918 4.61322 8.0983 4.8275 8.27875 5.16934Z" fill="white"/>
  <path d="M8.27875 5.16934L8.29559 5.26791L8.4316 5.24468L8.36719 5.12266L8.27875 5.16934ZM8.23042 7.57508L8.31592 7.62694L8.39118 7.50286L8.24843 7.47672L8.23042 7.57508ZM7.56156 6.41982C7.56156 6.05584 7.64631 5.78468 7.77787 5.59763C7.90857 5.4118 8.08931 5.30315 8.29559 5.26791L8.26191 5.07077C8.004 5.11483 7.77613 5.25245 7.61428 5.48256C7.4533 5.71145 7.36156 6.02587 7.36156 6.41982H7.56156ZM8.24843 7.47672C8.04987 7.44035 7.88165 7.34631 7.7616 7.18241C7.64053 7.0171 7.56156 6.77122 7.56156 6.41982H7.36156C7.36156 6.79982 7.44694 7.09127 7.60025 7.30058C7.7546 7.51131 7.97081 7.6292 8.2124 7.67344L8.24843 7.47672ZM8.14491 7.52322C7.97718 7.79974 7.76514 7.94578 7.55127 7.94578V8.14578C7.86363 8.14578 8.12973 7.93388 8.31592 7.62694L8.14491 7.52322ZM7.55127 7.94578C7.32971 7.94578 7.10991 7.7888 6.93991 7.49323C6.77146 7.20038 6.66409 6.78915 6.66409 6.3295H6.46409C6.46409 6.81772 6.5777 7.26464 6.76654 7.59295C6.95383 7.91856 7.22762 8.14578 7.55127 8.14578V7.94578ZM6.66409 6.3295C6.66409 5.86985 6.77146 5.45862 6.93991 5.16577C7.10991 4.8702 7.32971 4.71322 7.55127 4.71322V4.51322C7.22762 4.51322 6.95383 4.74044 6.76654 5.06605C6.5777 5.39436 6.46409 5.84128 6.46409 6.3295H6.66409ZM7.55127 4.71322C7.78526 4.71322 8.01758 4.88879 8.19032 5.21602L8.36719 5.12266C8.17903 4.76622 7.89309 4.51322 7.55127 4.51322V4.71322Z" fill="#3B3B3E" mask="url(#path-5-inside-1_983_298)"/>
  <ellipse cx="4.5" cy="6.3295" rx="0.987181" ry="1.71628" fill="#3B3B3E"/>
  <mask id="path-8-inside-2_983_298" fill="white">
    <path fill-rule="evenodd" clip-rule="evenodd" d="M5.22748 5.16934C4.76328 5.24864 4.41028 5.66189 4.41028 6.41982C4.41028 7.15122 4.73899 7.49447 5.17914 7.57508C5.00219 7.86681 4.76311 8.04578 4.5 8.04578C3.95479 8.04578 3.51282 7.27737 3.51282 6.3295C3.51282 5.38162 3.95479 4.61322 4.5 4.61322C4.78791 4.61322 5.04703 4.8275 5.22748 5.16934Z"/>
  </mask>
  <path fill-rule="evenodd" clip-rule="evenodd" d="M5.22748 5.16934C4.76328 5.24864 4.41028 5.66189 4.41028 6.41982C4.41028 7.15122 4.73899 7.49447 5.17914 7.57508C5.00219 7.86681 4.76311 8.04578 4.5 8.04578C3.95479 8.04578 3.51282 7.27737 3.51282 6.3295C3.51282 5.38162 3.95479 4.61322 4.5 4.61322C4.78791 4.61322 5.04703 4.8275 5.22748 5.16934Z" fill="white"/>
  <path d="M5.22748 5.16934L5.24432 5.26791L5.38033 5.24468L5.31592 5.12265L5.22748 5.16934ZM5.17914 7.57508L5.26465 7.62694L5.33991 7.50286L5.19716 7.47672L5.17914 7.57508ZM4.51028 6.41982C4.51028 6.05584 4.59503 5.78467 4.7266 5.59762C4.8573 5.4118 5.03804 5.30315 5.24432 5.26791L5.21064 5.07077C4.95272 5.11483 4.72486 5.25245 4.56301 5.48256C4.40202 5.71144 4.31028 6.02587 4.31028 6.41982H4.51028ZM5.19716 7.47672C4.99859 7.44035 4.83038 7.34631 4.71033 7.18241C4.58925 7.0171 4.51028 6.77122 4.51028 6.41982H4.31028C4.31028 6.79983 4.39566 7.09127 4.54898 7.30059C4.70332 7.51131 4.91954 7.6292 5.16113 7.67345L5.19716 7.47672ZM5.09364 7.52322C4.92591 7.79974 4.71387 7.94578 4.5 7.94578V8.14578C4.81236 8.14578 5.07846 7.93388 5.26465 7.62694L5.09364 7.52322ZM4.5 7.94578C4.27844 7.94578 4.05864 7.7888 3.88864 7.49323C3.72019 7.20038 3.61282 6.78915 3.61282 6.3295H3.41282C3.41282 6.81772 3.52643 7.26464 3.71527 7.59295C3.90256 7.91856 4.17635 8.14578 4.5 8.14578V7.94578ZM3.61282 6.3295C3.61282 5.86985 3.72019 5.45862 3.88864 5.16577C4.05864 4.8702 4.27844 4.71322 4.5 4.71322V4.51322C4.17635 4.51322 3.90256 4.74044 3.71527 5.06605C3.52643 5.39436 3.41282 5.84128 3.41282 6.3295H3.61282ZM4.5 4.71322C4.73399 4.71322 4.96631 4.88879 5.13905 5.21602L5.31592 5.12265C5.12776 4.76622 4.84182 4.51322 4.5 4.51322V4.71322Z" fill="#3B3B3E" mask="url(#path-8-inside-2_983_298)"/>
</svg>
